<?xml version="1.0" encoding="iso-8859-1"?>
<!-- Generator: Adobe Illustrator 19.0.0, SVG Export Plug-In . SVG Version: 6.00 Build 0)  -->
<svg version="1.1" id="Layer_1" xmlns="http://www.w3.org/2000/svg" xmlns:xlink="http://www.w3.org/1999/xlink" x="0px" y="0px"
	 viewBox="0 0 512 512" style="enable-background:new 0 0 512 512;" xml:space="preserve">
<circle style="fill:#273B7A;" cx="256" cy="256" r="256"/>
<path style="fill:#121149;" d="M504.748,316.675L333.048,144.975l-82.177,80.61l-6.382,5.418l-55.461,28.038l83.87,83.87
	l-93.324,21.695l-44.801,62.061l82.406,82.406C229.84,510.998,242.803,512,256,512C376.477,512,477.499,428.768,504.748,316.675z"/>
<path style="fill:#FFEDB5;" d="M373.281,328.816c-2.708-3.763-7.63-5.244-11.969-3.615c-0.062,0.024-0.124,0.047-0.188,0.067
	l-73.463,24.457c0.016,0.59,0.003,1.184-0.034,1.783c-0.614,9.382-7.868,16.917-17.191,17.863l-44.273,4.598
	c-2.801,0.293-5.304-1.743-5.596-4.543c-0.293-2.801,1.743-5.37,4.542-5.596l44.273-4.598c4.37-0.476,7.783-3.984,8.071-8.389
	c0.157-2.405-0.633-4.727-2.222-6.537c-1.589-1.812-3.791-2.896-6.196-3.053l-58.782-3.832c-6.603-0.428-13.155,1.029-18.953,4.22
	l-77.524,42.691l20.995,42.334l19.473-16.989c8.271-7.215,19.227-10.323,30.058-8.523l65.093,10.818
	c11.928,1.586,23.886-1.389,33.68-8.376l88.626-61.037C375.663,339.099,376.367,333.103,373.281,328.816z"/>
<g>
	<path style="fill:#FEE187;" d="M269.383,359.233c4.368-0.476,7.783-3.984,8.071-8.389c0.157-2.405-0.633-4.727-2.222-6.537
		c-1.589-1.812-3.791-2.896-6.196-3.053l-13.61-0.888v20.316L269.383,359.233z"/>
	<path style="fill:#FEE187;" d="M373.279,328.816c-2.708-3.763-7.63-5.244-11.969-3.613c-0.062,0.024-0.124,0.045-0.186,0.067
		l-73.463,24.457c0.016,0.59,0.003,1.184-0.034,1.783c-0.614,9.382-7.868,16.917-17.191,17.863l-15.01,1.558v41.448
		c9.871,0.052,19.509-2.974,27.65-8.782l88.626-61.037C375.663,339.099,376.367,333.103,373.279,328.816z"/>
</g>
<circle style="fill:#71E2EF;" cx="256" cy="195.663" r="92.229"/>
<path style="fill:#38C6D9;" d="M256,103.434c-0.131,0-0.26,0.009-0.391,0.01v184.437c0.131,0,0.26,0.01,0.391,0.01
	c50.936,0,92.229-41.293,92.229-92.229S306.936,103.434,256,103.434z"/>
<path style="fill:#477F3C;" d="M232.896,206.47c-17.887-5.589-17.143-24.967-3.353-28.693c13.788-3.727,6.708-9.316,13.043-24.223
	c6.335-14.905-3.353-9.688-10.061-23.476c-4.227-8.688-3.125-17.67-1.734-23.126c-33.776,9.581-59.651,37.91-65.665,73.044
	c18.66,19.175,42.694-5.36,46.904,10.08c4.472,16.396-1.491,22.731-1.491,22.731s-10.061,16.768-10.061,27.203
	c0,7.234,21.99,31.48,35.48,45.675c2.755,0.61,5.556,1.093,8.399,1.452c-0.712-7.437,0.362-17.494,9.781-22.533
	c16.024-8.571,19.004-40.245,19.004-40.245l-14.907-10.807C258.236,213.551,250.783,212.059,232.896,206.47z"/>
<g>
	<path style="fill:#2E5E24;" d="M273.143,224.356l-14.907-10.807c0,0-0.853-0.172-2.627-0.602v50.779
		C270.345,254.073,273.143,224.356,273.143,224.356z"/>
	<path style="fill:#2E5E24;" d="M282.036,107.186c-3.408,6.22-12.9,24.812-8.894,32.208c4.844,8.944,3.353-2.981,15.651,0
		c12.297,2.981,21.613,6.708,29.811,5.589c8.199-1.117,15.279,16.768,5.217,21.613c-10.061,4.844,8.944,39.5,8.944,39.5
		l12.469,12.94c1.95-7.466,2.996-15.296,2.996-23.373C348.229,153.772,320.29,118.427,282.036,107.186z"/>
</g>
<g>
</g>
<g>
</g>
<g>
</g>
<g>
</g>
<g>
</g>
<g>
</g>
<g>
</g>
<g>
</g>
<g>
</g>
<g>
</g>
<g>
</g>
<g>
</g>
<g>
</g>
<g>
</g>
<g>
</g>
</svg>
